# xmcd
#
# Track frame offsets: 
#        150
#        22621
#        45330
#        68364
#        94471
#        116156
#        145347
#        168760
#        216097
#        238899
#        260175
#        282609
#        301731
#
# Disc length: 4302 seconds
#
# Revision: 0
# Processed by: cddbd v1.5.2PL0 Copyright (c) Steve Scherf et al.
# Submitted via: ExactAudioCopy v1.0b1
#
DISCID=b610cc0d
DTITLE=Charles Stallings - One Night Lover
DYEAR=2004
DGENRE=Blues
TTITLE0=One Night Lover
TTITLE1=I Got The Blu-Hoos
TTITLE2=B-3 Blues
TTITLE3=Gettin' Old
TTITLE4=Swing
TTITLE5=4x4 Woman
TTITLE6=Sophisticated
TTITLE7=Hobbsville Blues
TTITLE8=Funky Farm
TTITLE9=Soul Rock 'n Roll
TTITLE10=She Devil
TTITLE11=The Rub
TTITLE12=Thank You, Jesus
EXTD=
EXTT0=
EXTT1=
EXTT2=
EXTT3=
EXTT4=
EXTT5=
EXTT6=
EXTT7=
EXTT8=
EXTT9=
EXTT10=
EXTT11=
EXTT12=
PLAYORDER=
